<svg width="188" height="48" viewBox="0 0 188 48" fill="none" xmlns="http://www.w3.org/2000/svg">
<path d="M10.928 16.54C12.9227 16.54 14.5227 17.1533 15.728 18.38C16.944 19.6067 17.552 21.2387 17.552 23.276V32.604C17.552 33.2013 17.2533 33.5 16.656 33.5H14.8C14.2027 33.5 13.904 33.2013 13.904 32.604V23.596C13.904 22.476 13.5573 21.564 12.864 20.86C12.1707 20.1453 11.2747 19.788 10.176 19.788C9.01333 19.788 8.00533 20.2253 7.152 21.1C6.30933 21.964 5.888 23.0573 5.888 24.38V32.604C5.888 33.2013 5.58933 33.5 4.992 33.5H3.12C2.52267 33.5 2.224 33.2013 2.224 32.604V17.82C2.224 17.2227 2.52267 16.924 3.12 16.924H4.992C5.58933 16.924 5.888 17.2227 5.888 17.82V19.132C6.464 18.3427 7.18933 17.7133 8.064 17.244C8.94933 16.7747 9.904 16.54 10.928 16.54ZM24.2848 26.332C24.4661 27.6547 25.0581 28.7427 26.0608 29.596C27.0634 30.4493 28.2901 30.876 29.7408 30.876C31.5968 30.876 33.2448 30.2627 34.6848 29.036C35.1221 28.6413 35.5434 28.6467 35.9488 29.052L36.6368 29.724C37.0741 30.14 37.0901 30.5613 36.6848 30.988C34.7754 32.9187 32.4768 33.884 29.7888 33.884C28.4341 33.884 27.1808 33.66 26.0288 33.212C24.8768 32.7533 23.9008 32.1347 23.1008 31.356C22.3114 30.5773 21.6928 29.66 21.2448 28.604C20.7968 27.5373 20.5728 26.4067 20.5728 25.212C20.5728 23.6227 20.9568 22.1667 21.7248 20.844C22.4928 19.5213 23.5594 18.476 24.9248 17.708C26.2901 16.9293 27.8048 16.54 29.4688 16.54C31.9328 16.54 33.9754 17.3507 35.5968 18.972C37.2181 20.5933 38.0288 22.5667 38.0288 24.892C38.0288 25.0307 38.0181 25.2387 37.9968 25.516C37.9541 26.06 37.6341 26.332 37.0368 26.332H24.2848ZM29.4528 19.548C28.2474 19.548 27.1754 19.9213 26.2368 20.668C25.3088 21.4147 24.6954 22.3747 24.3968 23.548H34.2368C34.0021 22.3747 33.4474 21.4147 32.5728 20.668C31.7088 19.9213 30.6688 19.548 29.4528 19.548ZM52.5238 16.924C53.0464 16.924 53.3771 17.18 53.5158 17.692L56.5878 28.812L59.7238 17.676C59.8624 17.1747 60.1931 16.924 60.7158 16.924H62.6518C62.9718 16.924 63.1958 17.0147 63.3238 17.196C63.4624 17.3773 63.4838 17.6227 63.3878 17.932L58.7638 32.764C58.6144 33.2547 58.2784 33.5 57.7558 33.5H55.5478C55.0251 33.5 54.6944 33.2493 54.5558 32.748L51.4518 21.74L48.3638 32.748C48.2251 33.2493 47.8944 33.5 47.3718 33.5H45.1638C44.6411 33.5 44.3051 33.2547 44.1558 32.764L39.5318 17.932C39.4358 17.6227 39.4518 17.3773 39.5798 17.196C39.7184 17.0147 39.9478 16.924 40.2678 16.924H42.1878C42.7104 16.924 43.0411 17.1747 43.1798 17.676L46.3318 28.812L49.3878 17.692C49.5264 17.18 49.8571 16.924 50.3798 16.924H52.5238ZM64.9585 25.212C64.9585 22.748 65.6678 20.6893 67.0865 19.036C68.5158 17.372 70.3292 16.54 72.5265 16.54C74.5212 16.54 76.1958 17.228 77.5505 18.604V18.204C77.5505 17.3507 77.9772 16.924 78.8305 16.924H82.0305C82.8838 16.924 83.3105 17.3507 83.3105 18.204V32.364C83.3105 35.0627 82.4998 37.164 80.8785 38.668C79.2678 40.172 77.0865 40.924 74.3345 40.924C71.5398 40.924 69.0918 39.9907 66.9905 38.124C66.4145 37.6013 66.3612 37.004 66.8305 36.332L67.5025 35.372C67.9612 34.7107 68.5585 34.6093 69.2945 35.068C70.5745 35.8467 71.9345 36.236 73.3745 36.236C74.6332 36.236 75.6412 35.9213 76.3985 35.292C77.1665 34.6733 77.5505 33.8147 77.5505 32.716V31.532C76.1745 32.8867 74.4998 33.564 72.5265 33.564C71.0758 33.564 69.7692 33.1853 68.6065 32.428C67.4438 31.6707 66.5425 30.6573 65.9025 29.388C65.2732 28.1187 64.9585 26.7267 64.9585 25.212ZM71.7425 22.7C71.0918 23.3827 70.7665 24.22 70.7665 25.212C70.7665 26.204 71.0918 27.0413 71.7425 27.724C72.4038 28.4067 73.2092 28.748 74.1585 28.748C75.1078 28.748 75.9078 28.4067 76.5585 27.724C77.2198 27.0413 77.5505 26.204 77.5505 25.212C77.5505 24.22 77.2198 23.3827 76.5585 22.7C75.9078 22.0173 75.1078 21.676 74.1585 21.676C73.2092 21.676 72.4038 22.0173 71.7425 22.7ZM88.2428 31.404C86.8241 29.74 86.1148 27.676 86.1148 25.212C86.1148 22.748 86.8241 20.6893 88.2428 19.036C89.6721 17.372 91.4854 16.54 93.6828 16.54C95.6774 16.54 97.3521 17.228 98.7068 18.604V18.204C98.7068 17.3507 99.1334 16.924 99.9868 16.924H103.187C104.04 16.924 104.467 17.3507 104.467 18.204V32.22C104.467 33.0733 104.04 33.5 103.187 33.5H99.9868C99.1334 33.5 98.7068 33.0733 98.7068 32.22V31.82C97.3521 33.196 95.6774 33.884 93.6828 33.884C91.4854 33.884 89.6721 33.0573 88.2428 31.404ZM92.8988 22.7C92.2481 23.3827 91.9228 24.22 91.9228 25.212C91.9228 26.204 92.2481 27.0413 92.8988 27.724C93.5601 28.4067 94.3654 28.748 95.3148 28.748C96.2641 28.748 97.0641 28.4067 97.7148 27.724C98.3761 27.0413 98.7068 26.204 98.7068 25.212C98.7068 24.22 98.3761 23.3827 97.7148 22.7C97.0641 22.0173 96.2641 21.676 95.3148 21.676C94.3654 21.676 93.5601 22.0173 92.8988 22.7ZM124.471 32.22C124.471 33.0733 124.044 33.5 123.191 33.5H119.831C118.978 33.5 118.551 33.0733 118.551 32.22V24.124C118.551 23.3773 118.364 22.7853 117.991 22.348C117.628 21.9107 117.111 21.692 116.439 21.692C115.788 21.692 115.25 21.932 114.823 22.412C114.396 22.8813 114.183 23.58 114.183 24.508V32.22C114.183 33.0733 113.756 33.5 112.903 33.5H109.543C108.69 33.5 108.263 33.0733 108.263 32.22V18.204C108.263 17.3507 108.69 16.924 109.543 16.924H112.903C113.756 16.924 114.183 17.3507 114.183 18.204V18.508C115.378 17.196 116.839 16.54 118.567 16.54C119.655 16.54 120.647 16.812 121.543 17.356C122.45 17.8893 123.159 18.636 123.671 19.596C124.247 18.636 124.983 17.8893 125.879 17.356C126.775 16.812 127.767 16.54 128.855 16.54C130.53 16.54 131.932 17.1373 133.063 18.332C134.194 19.516 134.759 21.052 134.759 22.94V32.22C134.759 33.0733 134.332 33.5 133.479 33.5H130.119C129.266 33.5 128.839 33.0733 128.839 32.22V24.124C128.839 23.4307 128.647 22.8547 128.263 22.396C127.879 21.9267 127.367 21.692 126.727 21.692C126.076 21.692 125.538 21.9373 125.111 22.428C124.684 22.908 124.471 23.628 124.471 24.588V32.22ZM143.144 26.764C143.304 27.7027 143.714 28.4173 144.376 28.908C145.048 29.3987 145.949 29.644 147.08 29.644C148.722 29.644 150.136 29.2813 151.32 28.556C152.024 28.1187 152.621 28.1987 153.112 28.796L153.72 29.548C154.242 30.2093 154.21 30.8067 153.624 31.34C151.768 33.036 149.538 33.884 146.936 33.884C145.517 33.884 144.2 33.66 142.984 33.212C141.768 32.764 140.738 32.156 139.896 31.388C139.064 30.6093 138.413 29.6867 137.944 28.62C137.474 27.5533 137.24 26.4173 137.24 25.212C137.24 23.612 137.64 22.1507 138.44 20.828C139.24 19.4947 140.344 18.4493 141.752 17.692C143.16 16.924 144.712 16.54 146.408 16.54C148.072 16.54 149.581 16.9133 150.936 17.66C152.29 18.4067 153.346 19.4253 154.104 20.716C154.872 22.0067 155.256 23.4253 155.256 24.972C155.256 25.1747 155.24 25.3987 155.208 25.644C155.165 26.0067 155.021 26.284 154.776 26.476C154.541 26.668 154.226 26.764 153.832 26.764H143.144ZM146.312 20.78C145.49 20.78 144.808 21.004 144.264 21.452C143.73 21.9 143.373 22.5453 143.192 23.388H149.336C149.005 21.6493 147.997 20.78 146.312 20.78Z" fill="#0B001D"/>
<path d="M162.51 12.7451C162.51 5.70617 168.216 0 175.255 0C182.294 0 188 5.70617 188 12.7451C188 17.5549 185.336 21.7425 181.402 23.9123C174.287 28.8165 158.98 28.2359 158.98 28.2359C158.439 28.2357 158 27.7963 158 27.2549C158 26.886 158.204 26.5647 158.505 26.3974C159.519 25.438 162.682 21.8421 162.609 14.3467C162.544 13.8221 162.51 13.2875 162.51 12.7451Z" fill="#0B001D"/>
<path d="M174.027 5.05418C173.664 5.161 173.35 5.43993 173.19 5.80787C173.069 6.0868 173.041 6.38353 173.058 7.58233C173.063 8.62089 173.063 8.6743 173.129 8.79892C173.168 8.87014 173.532 9.2915 173.939 9.72473C174.705 10.5437 174.766 10.5912 175.003 10.5912C175.24 10.5912 175.3 10.5437 176.066 9.72473C176.474 9.2915 176.838 8.87607 176.877 8.79892C176.943 8.6743 176.943 8.62682 176.954 7.53485C176.959 6.79896 176.948 6.33012 176.932 6.18769C176.838 5.6239 176.474 5.19661 175.973 5.04824C175.714 4.98296 174.27 4.98296 174.027 5.05418Z" fill="white"/>
<path d="M169.597 9.93232C169.233 9.9976 168.847 10.2765 168.676 10.6148C168.522 10.9234 168.5 11.0896 168.5 12.0035C168.5 12.9234 168.522 13.0895 168.676 13.3922C168.781 13.594 169.035 13.8432 169.249 13.956C169.514 14.0925 169.751 14.1103 170.875 14.0984C171.873 14.0866 171.917 14.0866 172.032 14.0153C172.099 13.9738 172.49 13.5821 172.892 13.143C173.653 12.318 173.697 12.2528 173.697 11.9976C173.697 11.7424 173.653 11.6771 172.892 10.8522C172.49 10.413 172.104 10.0213 172.032 9.9798C171.911 9.90858 171.873 9.90858 170.842 9.90265C170.247 9.90858 169.69 9.92045 169.597 9.93232Z" fill="white"/>
<path d="M178.128 9.92649C177.946 9.97396 177.836 10.0689 177.114 10.8582C176.353 11.6831 176.309 11.7425 176.309 12.0036C176.309 12.2588 176.353 12.3241 177.114 13.149C177.516 13.5881 177.902 13.9798 177.973 14.0214C178.089 14.0926 178.133 14.0926 179.131 14.1045C180.525 14.1163 180.712 14.0807 181.07 13.7246C181.263 13.5347 181.384 13.3211 181.451 13.0422C181.517 12.7632 181.517 11.2499 181.451 10.971C181.357 10.5912 181.147 10.2944 180.817 10.0927C180.563 9.92649 180.359 9.90275 179.235 9.90868C178.679 9.90275 178.183 9.91462 178.128 9.92649Z" fill="white"/>
<path d="M174.777 13.4636C174.683 13.4992 174.474 13.7069 173.923 14.2945C173.521 14.7277 173.168 15.1372 173.129 15.2084C173.063 15.339 173.063 15.3805 173.052 16.4725C173.041 17.9621 173.069 18.152 173.405 18.5437C173.581 18.7514 173.78 18.8819 174.039 18.9531C174.298 19.0244 175.703 19.0244 175.962 18.9531C176.221 18.8819 176.419 18.7514 176.596 18.5437C176.926 18.1579 176.959 17.9561 176.948 16.4547C176.937 15.3805 176.937 15.333 176.871 15.2084C176.833 15.1372 176.469 14.7158 176.061 14.2826C175.449 13.6298 175.301 13.4814 175.196 13.4517C175.042 13.4043 174.92 13.4102 174.777 13.4636Z" fill="white"/>
</svg>
