<?xml version="1.0" encoding="UTF-8" standalone="no"?>
<svg
   width="64"
   height="64"
   viewBox="0 0 64 64"
   fill="none"
   version="1.1"
   id="svg12"
   xmlns="http://www.w3.org/2000/svg"
   xmlns:svg="http://www.w3.org/2000/svg">
  <defs
     id="defs16" />
  <circle
     cx="32"
     cy="32"
     r="32"
     fill="#db4a0d"
     id="circle2"
     style="stroke-width:1.52381" />
  <path
     d="m 26.392381,43.928533 -1.115429,3.337753 c -0.0069,0.02057 -0.01539,0.04099 -0.02529,0.06034 -0.828038,1.627428 -2.065371,2.025752 -3.711847,0.383542 -0.820267,-0.818285 -1.460115,-2.157409 -1.799924,-3.461333 -0.121753,-0.466438 0.6144,-0.762057 0.974628,-0.4416 0.282362,0.251124 0.571581,0.467657 0.825296,0.598857 0.604038,0.311924 2.001066,0.113829 1.242361,-1.652114 -0.194895,-0.486095 -0.867961,-1.365181 -1.242361,-2.065067 -3.217524,-6.017676 2.270933,0.859581 2.84998,1.5904 0.03459,0.04373 0.07314,0.07634 0.120991,0.104991 l 1.682743,1.007085 c 0.184228,0.110172 0.266819,0.333562 0.198857,0.537143 z"
     fill="#ffffff"
     id="path4"
     style="stroke-width:1.52381" />
  <path
     d="m 25.4432,46.937448 c 6.474667,-11.0784 -3.216,-12.695619 -9.950324,-19.671315 -0.252495,-0.261485 -0.702446,-0.139428 -0.782126,0.215162 -2.756723,12.270476 9.292602,10.433524 9.788755,19.180495 0.02712,0.47802 0.702019,0.689067 0.943695,0.275658 z"
     fill="#ffffff"
     id="path6"
     style="stroke-width:1.52381" />
  <path
     d="M 29.219505,39.644343 C 26.950248,29.537676 5.617341,26.910781 17.074286,13.048579 c 0.259962,-0.314438 0.816762,-0.160122 0.942628,0.227886 2.237562,6.893897 21.441067,10.340906 12.159086,26.555916 -0.222933,0.389333 -0.85821,0.2496 -0.956495,-0.188038 z"
     fill="#ffffff"
     id="path8"
     style="stroke-width:1.52381" />
  <path
     fill-rule="evenodd"
     clip-rule="evenodd"
     d="m 33.527162,34.903467 4.472381,9.487543 c 0.382324,0.825142 1.040762,1.237638 1.975162,1.237638 h 5.564343 c 1.132647,0 1.699047,-0.550096 1.699047,-1.650286 V 18.400457 c 0,-1.10019 -0.5664,-1.650286 -1.699047,-1.650286 h -3.992686 c -1.132648,0 -1.699048,0.550096 -1.699048,1.650286 V 34.386743 L 32.116724,17.98781 c -0.382324,-0.825143 -1.04061,-1.237639 -1.97501,-1.237639 h -5.585676 c -0.648533,0 -1.111467,0.180419 -1.388648,0.541105 0.453486,0.351391 0.93562,0.714057 1.433753,1.08861 1.527314,1.148647 3.204114,2.409752 4.658743,3.801295 2.049981,1.96099 3.845485,4.339962 4.443276,7.397486 0.318933,1.630781 0.286019,3.395962 -0.176,5.3248 z m -0.900419,-1.909943 -1.53e-4,-3.05e-4 c 0.708115,-6.5216 -4.31238,-10.297143 -8.699276,-13.59619 v 0 c -0.241828,-0.181943 -0.481676,-0.362362 -0.718628,-0.541715 l -1.53e-4,-1.52e-4 c 0.236953,0.179352 0.476953,0.359924 0.718934,0.541867 v 0 c 4.387047,3.299047 9.407543,7.07459 8.699276,13.596495 z"
     fill="#ffffff"
     id="path10"
     style="stroke-width:1.52381" />
</svg>
