<?xml version="1.0" encoding="UTF-8" standalone="no"?>
<svg
   width="86.340797"
   height="48.000099"
   viewBox="0 0 86.340797 48.000099"
   fill="none"
   version="1.1"
   id="svg20"
   sodipodi:docname="logod.svg"
   inkscape:version="1.2.2 (b0a8486541, 2022-12-01)"
   xmlns:inkscape="http://www.inkscape.org/namespaces/inkscape"
   xmlns:sodipodi="http://sodipodi.sourceforge.net/DTD/sodipodi-0.dtd"
   xmlns="http://www.w3.org/2000/svg"
   xmlns:svg="http://www.w3.org/2000/svg">
  <defs
     id="defs24" />
  <sodipodi:namedview
     id="namedview22"
     pagecolor="#ffffff"
     bordercolor="#000000"
     borderopacity="0.25"
     inkscape:showpageshadow="2"
     inkscape:pageopacity="0.0"
     inkscape:pagecheckerboard="0"
     inkscape:deskcolor="#d1d1d1"
     showgrid="false"
     inkscape:zoom="3.9527269"
     inkscape:cx="17.203313"
     inkscape:cy="24.540021"
     inkscape:window-width="1366"
     inkscape:window-height="695"
     inkscape:window-x="0"
     inkscape:window-y="0"
     inkscape:window-maximized="1"
     inkscape:current-layer="svg20" />
  <path
     d="m 30.952897,24.5071 h -3.5911 v -9.7336 c 0,-1.638 -0.4095,-2.835 -1.2285,-3.591 -0.798,-0.777 -1.806,-1.1655 -3.024,-1.1655 -1.281,0 -2.373,0.4095 -3.2761,1.2285 -0.882,0.819 -1.323,2.163 -1.323,4.032 v 9.2296 h -3.591 v -9.7336 c 0,-1.638 -0.4095,-2.835 -1.2285,-3.591 -0.798,-0.777 -1.806,-1.1655 -3.0241,-1.1655 -1.281,0 -2.37297,0.4095 -3.27598,1.2285 -0.88201,0.819 -1.32302,2.163 -1.32302,4.032 v 9.2296 H 2.476567 V 7.15044 h 3.59103 V 10.773 c 0.52501,-1.365 1.31252,-2.35205 2.36253,-2.96105 1.04997,-0.63001 2.20507,-0.94501 3.46507,-0.94501 1.323,0 2.52,0.336 3.591,1.00801 1.092,0.65101 1.9215,1.70105 2.4885,3.15005 0.609,-1.428 1.47,-2.47804 2.5831,-3.15005 1.134,-0.67201 2.3415,-1.00801 3.6225,-1.00801 1.953,0 3.57,0.63001 4.851,1.89002 1.2811,1.23904 1.9216,3.11854 1.9216,5.63854 z"
     fill="#0B001D"
     stroke="#0B001D"
     stroke-width="0.5"
     id="path2"
     style="fill:#ffffff;stroke:none;stroke-opacity:1" />
  <path
     d="m 35.520197,4.15805 c -0.756,0 -1.3335,-0.1995 -1.7325,-0.59851 -0.378,-0.399 -0.567,-0.88201 -0.567,-1.44902 0,-0.567 0.189,-1.06051 0.567,-1.48051 C 34.186697,0.21 34.764197,0 35.520197,0 c 0.756,0 1.3335,0.21 1.7325,0.63001 0.3991,0.42 0.5986,0.91351 0.5986,1.48051 0,0.60901 -0.2205,1.10252 -0.6616,1.48052 -0.42,0.37801 -0.9765,0.56701 -1.6695,0.56701 z m 1.7955,20.34925 h -3.591 V 7.15057 h 3.591 z"
     fill="#0B001D"
     stroke="#0B001D"
     stroke-width="0.5"
     id="path4"
     style="fill:#ffffff;stroke:none;stroke-opacity:1" />
  <path
     d="m 43.835697,24.5073 h -3.5911 V 1.19702 h 3.5911 z"
     fill="#0B001D"
     stroke="#0B001D"
     stroke-width="0.5"
     id="path6"
     style="fill:#ffffff;stroke:none;stroke-opacity:1" />
  <path
     d="m 10.332097,47.7792 h -2.20501 c -3.75904,0 -5.63856,-1.8271 -5.63856,-5.4811 V 33.478 H 0 v -3.0555 h 2.488527 v -4.3156 h 3.62254 v 4.3156 h 4.18953 v 3.0555 h -4.18953 v 8.5681 c 0,0.987 0.189,1.6695 0.567,2.0475 0.378,0.378 1.01851,0.567 1.92152,0.567 h 1.73251 z"
     fill="#0B001D"
     stroke="#0B001D"
     stroke-width="0.5"
     id="path8"
     style="fill:#ffffff;stroke:none;stroke-opacity:1" />
  <path
     d="m 19.843697,48.0001 c -2.541,0 -4.6095,-0.7875 -6.2055,-2.3625 -1.596,-1.5961 -2.3941,-3.7801 -2.3941,-6.5521 0,-2.793 0.8086,-4.9666 2.4256,-6.5206 1.638,-1.575 3.696,-2.3625 6.174,-2.3625 1.7851,0 3.3076,0.3675 4.5676,1.1025 1.26,0.714 2.2155,1.6905 2.8665,2.9295 0.651,1.218 0.9765,2.5621 0.9765,4.0321 0,0.588 -0.042,1.1025 -0.126,1.5435 h -13.3561 c 0.105,1.848 0.6195,3.192 1.5435,4.032 0.945,0.819 2.0685,1.2286 3.3705,1.2286 1.197,0 2.1946,-0.2941 2.9926,-0.8821 0.819,-0.588 1.344,-1.407 1.575,-2.457 h 3.843 c -0.462,2.058 -1.449,3.6226 -2.961,4.6936 -1.491,1.05 -3.255,1.575 -5.2921,1.575 z m 4.7881,-9.8281 c 0,-2.226 -0.777,-3.7486 -2.331,-4.5676 -0.7561,-0.357 -1.5751,-0.5355 -2.4571,-0.5355 -1.344,0 -2.499,0.4095 -3.465,1.2285 -0.945,0.819 -1.4805,2.1106 -1.6065,3.8746 z"
     fill="#0B001D"
     stroke="#0B001D"
     stroke-width="0.5"
     id="path10"
     style="fill:#ffffff;stroke:none;stroke-opacity:1" />
  <path
     d="m 46.526697,47.7793 h -3.5911 v -9.7336 c 0,-1.68 -0.4305,-2.9085 -1.2915,-3.6855 -0.861,-0.798 -1.9215,-1.197 -3.1815,-1.197 -0.882,0 -1.68,0.189 -2.394,0.567 -0.7141,0.357 -1.2811,0.9345 -1.7011,1.7325 -0.42,0.777 -0.63,1.806 -0.63,3.0871 v 9.2295 h -3.591 V 30.4227 h 3.591 v 3.8115 c 0.546,-1.428 1.3755,-2.4675 2.4886,-3.1185 1.113,-0.651 2.3205,-0.9765 3.6225,-0.9765 1.932,0 3.528,0.63 4.788,1.89 1.2601,1.239 1.8901,3.1185 1.8901,5.6385 z"
     fill="#0B001D"
     stroke="#0B001D"
     stroke-width="0.5"
     id="path12"
     style="fill:#ffffff;stroke:none;stroke-opacity:1" />
  <path
     d="m 56.070597,48.0001 c -2.352,0 -4.158,-0.525 -5.4181,-1.575 -1.239,-1.071 -1.9845,-2.4571 -2.2365,-4.1581 h 3.4966 c 0.105,0.903 0.4935,1.659 1.1655,2.268 0.672,0.609 1.6695,0.9136 2.9925,0.9136 0.945,0 1.638,-0.231 2.079,-0.6931 0.462,-0.483 0.693,-1.05 0.693,-1.701 0,-0.609 -0.189,-1.092 -0.567,-1.449 -0.378,-0.357 -0.8505,-0.63 -1.4175,-0.819 -0.567,-0.21 -1.344,-0.42 -2.331,-0.63 -1.323,-0.294 -2.3835,-0.609 -3.1816,-0.945 -0.798,-0.336 -1.4595,-0.8085 -1.9845,-1.4175 -0.504,-0.63 -0.756,-1.512 -0.756,-2.6461 0,-0.903 0.2205,-1.722 0.6615,-2.457 0.441,-0.756 1.113,-1.3545 2.0161,-1.7955 0.924,-0.462 2.1105,-0.693 3.5595,-0.693 1.491,0 2.73,0.252 3.717,0.756 1.008,0.504 1.7955,1.1865 2.3625,2.0475 0.5671,0.861 0.9241,1.8375 1.0711,2.9296 h -3.4021 c -0.126,-0.9031 -0.504,-1.6486 -1.134,-2.2366 -0.609,-0.609 -1.512,-0.9135 -2.709,-0.9135 -0.987,0 -1.7115,0.231 -2.1735,0.693 -0.441,0.462 -0.6615,1.029 -0.6615,1.7011 0,0.714 0.315,1.2705 0.945,1.6695 0.63,0.378 1.6695,0.7245 3.1185,1.0395 1.239,0.294 2.331,0.609 3.276,0.945 1.9531,0.714 2.9296,2.142 2.9296,4.284 0,1.344 -0.5145,2.4991 -1.5436,3.4651 -1.029,0.945 -2.5515,1.4175 -4.5675,1.4175 z"
     fill="#0B001D"
     stroke="#0B001D"
     stroke-width="0.5"
     id="path14"
     style="fill:#ffffff;stroke:none;stroke-opacity:1" />
  <path
     d="m 71.914297,48.0001 c -2.541,0 -4.6096,-0.7875 -6.2056,-2.3625 -1.596,-1.5961 -2.394,-3.7801 -2.394,-6.5521 0,-2.793 0.8085,-4.9666 2.4255,-6.5206 1.638,-1.575 3.6961,-2.3625 6.1741,-2.3625 1.785,0 3.3075,0.3675 4.5675,1.1025 1.26,0.714 2.2156,1.6905 2.8666,2.9295 0.651,1.218 0.9765,2.5621 0.9765,4.0321 0,0.588 -0.042,1.1025 -0.126,1.5435 h -13.3562 c 0.105,1.848 0.6195,3.192 1.5435,4.032 0.9451,0.819 2.0686,1.2286 3.3706,1.2286 1.197,0 2.1945,-0.2941 2.9925,-0.8821 0.819,-0.588 1.344,-1.407 1.575,-2.457 h 3.8431 c -0.462,2.058 -1.449,3.6226 -2.9611,4.6936 -1.491,1.05 -3.255,1.575 -5.292,1.575 z m 4.788,-9.8281 c 0,-2.226 -0.777,-3.7486 -2.331,-4.5676 -0.756,-0.357 -1.575,-0.5355 -2.457,-0.5355 -1.344,0 -2.499,0.4095 -3.465,1.2285 -0.9451,0.819 -1.4806,2.1106 -1.6066,3.8746 z"
     fill="#0B001D"
     stroke="#0B001D"
     stroke-width="0.5"
     id="path16"
     style="fill:#ffffff;stroke:none;stroke-opacity:1" />
  <path
     d="m 84.009697,27.4303 c -0.756,0 -1.3335,-0.1995 -1.7325,-0.5986 -0.378,-0.399 -0.567,-0.882 -0.567,-1.449 0,-0.567 0.189,-1.0605 0.567,-1.4805 0.399,-0.42 0.9765,-0.63 1.7325,-0.63 0.756,0 1.3335,0.21 1.7326,0.63 0.399,0.42 0.5985,0.9135 0.5985,1.4805 0,0.609 -0.2205,1.1025 -0.6616,1.4805 -0.42,0.3781 -0.9765,0.5671 -1.6695,0.5671 z m 1.7955,20.3492 h -3.591 V 30.4228 h 3.591 z"
     fill="#0B001D"
     stroke="#0B001D"
     stroke-width="0.5"
     id="path18"
     style="fill:#ffffff;stroke:none;stroke-opacity:1" />
</svg>
