<svg width="120" height="48" viewBox="0 0 120 48" fill="none" xmlns="http://www.w3.org/2000/svg">
<g clip-path="url(#clip0_2506_502)">
<circle cx="21" cy="23.75" r="21" fill="#DB4A0D"/>
<path d="M17.32 31.5781L16.588 33.7685C16.5835 33.782 16.5779 33.7954 16.5714 33.8081C16.028 34.8761 15.216 35.1375 14.1355 34.0598C13.5972 33.5228 13.1773 32.644 12.9543 31.7883C12.8744 31.4822 13.3575 31.2882 13.5939 31.4985C13.7792 31.6633 13.969 31.8054 14.1355 31.8915C14.5319 32.0962 15.4487 31.9662 14.9508 30.8073C14.8229 30.4883 14.3812 29.9114 14.1355 29.4521C12.024 25.503 15.6258 30.0162 16.0058 30.4958C16.0285 30.5245 16.0538 30.5459 16.0852 30.5647L17.1895 31.2256C17.3104 31.2979 17.3646 31.4445 17.32 31.5781Z" fill="white"/>
<path d="M16.6971 33.5527C20.9461 26.2825 14.5866 25.2212 10.1672 20.6434C10.0015 20.4718 9.70622 20.5519 9.65393 20.7846C7.84483 28.8371 15.7522 27.6316 16.0778 33.3718C16.0956 33.6855 16.5385 33.824 16.6971 33.5527Z" fill="white"/>
<path d="M19.1753 28.7666C17.6861 22.1341 3.68638 20.4102 11.205 11.3131C11.3756 11.1068 11.741 11.208 11.8236 11.4627C13.292 15.9868 25.8943 18.2489 19.803 28.89C19.6567 29.1455 19.2398 29.0538 19.1753 28.7666Z" fill="white"/>
<path fill-rule="evenodd" clip-rule="evenodd" d="M22.0022 25.6554L24.9372 31.8816C25.1881 32.4231 25.6202 32.6938 26.2334 32.6938H29.885C30.6283 32.6938 31 32.3328 31 31.6108V14.8253C31 14.1033 30.6283 13.7423 29.885 13.7423H27.2648C26.5215 13.7423 26.1498 14.1033 26.1498 14.8253V25.3163L21.0766 14.5545C20.8257 14.013 20.3937 13.7423 19.7805 13.7423H16.1149C15.6893 13.7423 15.3855 13.8607 15.2036 14.0974C15.5012 14.328 15.8176 14.566 16.1445 14.8118C17.1468 15.5656 18.2472 16.3932 19.2018 17.3064C20.5471 18.5933 21.7254 20.1545 22.1177 22.161C22.327 23.2312 22.3054 24.3896 22.0022 25.6554ZM21.4113 24.402L21.4112 24.4018C21.8759 20.122 18.5812 17.6443 15.7023 15.4793L15.7023 15.4793C15.5436 15.3599 15.3862 15.2415 15.2307 15.1238L15.2306 15.1237C15.3861 15.2414 15.5436 15.3599 15.7024 15.4793L15.7024 15.4793C18.5814 17.6443 21.8761 20.122 21.4113 24.402Z" fill="white"/>
<path d="M55.808 32.22C55.808 33.0733 55.3813 33.5 54.528 33.5H51.168C50.3147 33.5 49.888 33.0733 49.888 32.22V18.204C49.888 17.3507 50.3147 16.924 51.168 16.924H54.528C55.3813 16.924 55.808 17.3507 55.808 18.204V18.556C56.8747 17.2547 58.3253 16.604 60.16 16.604C61.8987 16.604 63.344 17.18 64.496 18.332C65.648 19.484 66.224 21.02 66.224 22.94V32.22C66.224 33.0733 65.7973 33.5 64.944 33.5H61.584C60.7307 33.5 60.304 33.0733 60.304 32.22V24.124C60.304 23.4307 60.096 22.8547 59.68 22.396C59.2747 21.9267 58.752 21.692 58.112 21.692C57.44 21.692 56.8853 21.9373 56.448 22.428C56.0213 22.908 55.808 23.628 55.808 24.588V32.22ZM68.7085 25.212C68.7085 22.748 69.4178 20.6893 70.8365 19.036C72.2658 17.372 74.0792 16.54 76.2765 16.54C78.2712 16.54 79.9458 17.228 81.3005 18.604V18.204C81.3005 17.3507 81.7272 16.924 82.5805 16.924H85.7805C86.6338 16.924 87.0605 17.3507 87.0605 18.204V32.364C87.0605 35.0627 86.2498 37.164 84.6285 38.668C83.0178 40.172 80.8365 40.924 78.0845 40.924C75.2898 40.924 72.8418 39.9907 70.7405 38.124C70.1645 37.6013 70.1112 37.004 70.5805 36.332L71.2525 35.372C71.7112 34.7107 72.3085 34.6093 73.0445 35.068C74.3245 35.8467 75.6845 36.236 77.1245 36.236C78.3832 36.236 79.3912 35.9213 80.1485 35.292C80.9165 34.6733 81.3005 33.8147 81.3005 32.716V31.532C79.9245 32.8867 78.2498 33.564 76.2765 33.564C74.8258 33.564 73.5192 33.1853 72.3565 32.428C71.1938 31.6707 70.2925 30.6573 69.6525 29.388C69.0232 28.1187 68.7085 26.7267 68.7085 25.212ZM75.4925 22.7C74.8418 23.3827 74.5165 24.22 74.5165 25.212C74.5165 26.204 74.8418 27.0413 75.4925 27.724C76.1538 28.4067 76.9592 28.748 77.9085 28.748C78.8578 28.748 79.6578 28.4067 80.3085 27.724C80.9698 27.0413 81.3005 26.204 81.3005 25.212C81.3005 24.22 80.9698 23.3827 80.3085 22.7C79.6578 22.0173 78.8578 21.676 77.9085 21.676C76.9592 21.676 76.1538 22.0173 75.4925 22.7Z" fill="#0B001D"/>
<path d="M94.5098 12.7451C94.5098 5.70617 100.216 0 107.255 0C114.294 0 120 5.70617 120 12.7451C120 17.5549 117.336 21.7425 113.402 23.9123C106.287 28.8165 90.9804 28.2359 90.9804 28.2359C90.4391 28.2357 90 27.7963 90 27.2549C90 26.886 90.2037 26.5647 90.5048 26.3974C91.5194 25.438 94.6816 21.8421 94.6095 14.3467C94.5437 13.8221 94.5098 13.2875 94.5098 12.7451Z" fill="#0B001D"/>
<path d="M106.027 5.05418C105.664 5.161 105.35 5.43993 105.19 5.80787C105.069 6.0868 105.041 6.38353 105.058 7.58233C105.063 8.62089 105.063 8.6743 105.129 8.79892C105.168 8.87014 105.532 9.2915 105.939 9.72473C106.705 10.5437 106.766 10.5912 107.003 10.5912C107.24 10.5912 107.3 10.5437 108.066 9.72473C108.474 9.2915 108.838 8.87607 108.877 8.79892C108.943 8.6743 108.943 8.62682 108.954 7.53485C108.959 6.79896 108.948 6.33012 108.932 6.18769C108.838 5.6239 108.474 5.19661 107.973 5.04824C107.714 4.98296 106.27 4.98296 106.027 5.05418Z" fill="white"/>
<path d="M101.597 9.93232C101.233 9.9976 100.847 10.2765 100.676 10.6148C100.522 10.9234 100.5 11.0896 100.5 12.0035C100.5 12.9234 100.522 13.0895 100.676 13.3922C100.781 13.594 101.035 13.8432 101.249 13.956C101.514 14.0925 101.751 14.1103 102.875 14.0984C103.873 14.0866 103.917 14.0866 104.032 14.0153C104.099 13.9738 104.49 13.5821 104.892 13.143C105.653 12.318 105.697 12.2528 105.697 11.9976C105.697 11.7424 105.653 11.6771 104.892 10.8522C104.49 10.413 104.104 10.0213 104.032 9.9798C103.911 9.90858 103.873 9.90858 102.842 9.90265C102.247 9.90858 101.69 9.92045 101.597 9.93232Z" fill="white"/>
<path d="M110.128 9.92649C109.946 9.97396 109.836 10.0689 109.114 10.8582C108.353 11.6831 108.309 11.7425 108.309 12.0036C108.309 12.2588 108.353 12.3241 109.114 13.149C109.516 13.5881 109.902 13.9798 109.973 14.0214C110.089 14.0926 110.133 14.0926 111.131 14.1045C112.525 14.1163 112.712 14.0807 113.07 13.7246C113.263 13.5347 113.384 13.3211 113.451 13.0422C113.517 12.7632 113.517 11.2499 113.451 10.971C113.357 10.5912 113.147 10.2944 112.817 10.0927C112.563 9.92649 112.359 9.90275 111.235 9.90868C110.679 9.90275 110.183 9.91462 110.128 9.92649Z" fill="white"/>
<path d="M106.777 13.4636C106.683 13.4992 106.474 13.7069 105.923 14.2945C105.521 14.7277 105.168 15.1372 105.129 15.2084C105.063 15.339 105.063 15.3805 105.052 16.4725C105.041 17.9621 105.069 18.152 105.405 18.5437C105.581 18.7514 105.78 18.8819 106.039 18.9531C106.298 19.0244 107.703 19.0244 107.962 18.9531C108.221 18.8819 108.419 18.7514 108.596 18.5437C108.926 18.1579 108.959 17.9561 108.948 16.4547C108.937 15.3805 108.937 15.333 108.871 15.2084C108.833 15.1372 108.469 14.7158 108.061 14.2826C107.449 13.6298 107.301 13.4814 107.196 13.4517C107.042 13.4043 106.92 13.4102 106.777 13.4636Z" fill="white"/>
</g>
<defs>
<clipPath id="clip0_2506_502">
<rect width="120" height="47.5" fill="white"/>
</clipPath>
</defs>
</svg>
