<svg width="236" height="48" viewBox="0 0 236 48" fill="none" xmlns="http://www.w3.org/2000/svg">
<g clip-path="url(#clip0_2480_1830)">
<circle cx="21" cy="23.75" r="21" fill="#DB4A0D"/>
<path d="M17.32 31.5781L16.588 33.7685C16.5835 33.782 16.5779 33.7954 16.5714 33.8081C16.028 34.8761 15.216 35.1375 14.1355 34.0598C13.5972 33.5228 13.1773 32.644 12.9543 31.7883C12.8744 31.4822 13.3575 31.2882 13.5939 31.4985C13.7792 31.6633 13.969 31.8054 14.1355 31.8915C14.5319 32.0962 15.4487 31.9662 14.9508 30.8073C14.8229 30.4883 14.3812 29.9114 14.1355 29.4521C12.024 25.503 15.6258 30.0162 16.0058 30.4958C16.0285 30.5245 16.0538 30.5459 16.0852 30.5647L17.1895 31.2256C17.3104 31.2979 17.3646 31.4445 17.32 31.5781Z" fill="white"/>
<path d="M16.6971 33.5527C20.9461 26.2825 14.5866 25.2212 10.1672 20.6434C10.0015 20.4718 9.70622 20.5519 9.65393 20.7846C7.84483 28.8371 15.7522 27.6316 16.0778 33.3718C16.0956 33.6855 16.5385 33.824 16.6971 33.5527Z" fill="white"/>
<path d="M19.1753 28.7666C17.6861 22.1341 3.68638 20.4102 11.205 11.3131C11.3756 11.1068 11.741 11.208 11.8236 11.4627C13.292 15.9868 25.8943 18.2489 19.803 28.89C19.6567 29.1455 19.2398 29.0538 19.1753 28.7666Z" fill="white"/>
<path fill-rule="evenodd" clip-rule="evenodd" d="M22.0022 25.6554L24.9372 31.8816C25.1881 32.4231 25.6202 32.6938 26.2334 32.6938H29.885C30.6283 32.6938 31 32.3328 31 31.6108V14.8253C31 14.1033 30.6283 13.7423 29.885 13.7423H27.2648C26.5215 13.7423 26.1498 14.1033 26.1498 14.8253V25.3163L21.0766 14.5545C20.8258 14.013 20.3937 13.7423 19.7805 13.7423H16.1149C15.6893 13.7423 15.3855 13.8607 15.2036 14.0974C15.5012 14.328 15.8176 14.566 16.1445 14.8118C17.1468 15.5656 18.2472 16.3932 19.2018 17.3064C20.5471 18.5933 21.7254 20.1545 22.1177 22.161C22.327 23.2312 22.3054 24.3896 22.0022 25.6554ZM21.4113 24.402L21.4112 24.4018C21.8759 20.122 18.5812 17.6443 15.7023 15.4793L15.7023 15.4793C15.5436 15.3599 15.3862 15.2415 15.2307 15.1238L15.2306 15.1237C15.3861 15.2414 15.5436 15.3599 15.7024 15.4793L15.7024 15.4793C18.5814 17.6443 21.8761 20.122 21.4113 24.402Z" fill="white"/>
<path d="M58.928 16.54C60.9227 16.54 62.5227 17.1533 63.728 18.38C64.944 19.6067 65.552 21.2387 65.552 23.276V32.604C65.552 33.2013 65.2533 33.5 64.656 33.5H62.8C62.2027 33.5 61.904 33.2013 61.904 32.604V23.596C61.904 22.476 61.5573 21.564 60.864 20.86C60.1707 20.1453 59.2747 19.788 58.176 19.788C57.0133 19.788 56.0053 20.2253 55.152 21.1C54.3093 21.964 53.888 23.0573 53.888 24.38V32.604C53.888 33.2013 53.5893 33.5 52.992 33.5H51.12C50.5227 33.5 50.224 33.2013 50.224 32.604V17.82C50.224 17.2227 50.5227 16.924 51.12 16.924H52.992C53.5893 16.924 53.888 17.2227 53.888 17.82V19.132C54.464 18.3427 55.1893 17.7133 56.064 17.244C56.9493 16.7747 57.904 16.54 58.928 16.54ZM72.2848 26.332C72.4661 27.6547 73.0581 28.7427 74.0608 29.596C75.0634 30.4493 76.2901 30.876 77.7408 30.876C79.5968 30.876 81.2448 30.2627 82.6848 29.036C83.1221 28.6413 83.5434 28.6467 83.9488 29.052L84.6368 29.724C85.0741 30.14 85.0901 30.5613 84.6848 30.988C82.7754 32.9187 80.4768 33.884 77.7888 33.884C76.4341 33.884 75.1808 33.66 74.0288 33.212C72.8768 32.7533 71.9008 32.1347 71.1008 31.356C70.3114 30.5773 69.6928 29.66 69.2448 28.604C68.7968 27.5373 68.5728 26.4067 68.5728 25.212C68.5728 23.6227 68.9568 22.1667 69.7248 20.844C70.4928 19.5213 71.5594 18.476 72.9248 17.708C74.2901 16.9293 75.8048 16.54 77.4688 16.54C79.9328 16.54 81.9754 17.3507 83.5968 18.972C85.2181 20.5933 86.0288 22.5667 86.0288 24.892C86.0288 25.0307 86.0181 25.2387 85.9968 25.516C85.9541 26.06 85.6341 26.332 85.0368 26.332H72.2848ZM77.4528 19.548C76.2474 19.548 75.1754 19.9213 74.2368 20.668C73.3088 21.4147 72.6954 22.3747 72.3968 23.548H82.2368C82.0021 22.3747 81.4474 21.4147 80.5728 20.668C79.7088 19.9213 78.6688 19.548 77.4528 19.548ZM100.524 16.924C101.046 16.924 101.377 17.18 101.516 17.692L104.588 28.812L107.724 17.676C107.862 17.1747 108.193 16.924 108.716 16.924H110.652C110.972 16.924 111.196 17.0147 111.324 17.196C111.462 17.3773 111.484 17.6227 111.388 17.932L106.764 32.764C106.614 33.2547 106.278 33.5 105.756 33.5H103.548C103.025 33.5 102.694 33.2493 102.556 32.748L99.4518 21.74L96.3638 32.748C96.2251 33.2493 95.8944 33.5 95.3718 33.5H93.1638C92.6411 33.5 92.3051 33.2547 92.1558 32.764L87.5318 17.932C87.4358 17.6227 87.4518 17.3773 87.5798 17.196C87.7184 17.0147 87.9478 16.924 88.2678 16.924H90.1878C90.7104 16.924 91.0411 17.1747 91.1798 17.676L94.3318 28.812L97.3878 17.692C97.5264 17.18 97.8571 16.924 98.3798 16.924H100.524ZM112.959 25.212C112.959 22.748 113.668 20.6893 115.087 19.036C116.516 17.372 118.329 16.54 120.527 16.54C122.521 16.54 124.196 17.228 125.551 18.604V18.204C125.551 17.3507 125.977 16.924 126.831 16.924H130.031C130.884 16.924 131.311 17.3507 131.311 18.204V32.364C131.311 35.0627 130.5 37.164 128.878 38.668C127.268 40.172 125.087 40.924 122.335 40.924C119.54 40.924 117.092 39.9907 114.991 38.124C114.415 37.6013 114.361 37.004 114.831 36.332L115.503 35.372C115.961 34.7107 116.559 34.6093 117.295 35.068C118.575 35.8467 119.935 36.236 121.375 36.236C122.633 36.236 123.641 35.9213 124.399 35.292C125.167 34.6733 125.551 33.8147 125.551 32.716V31.532C124.175 32.8867 122.5 33.564 120.527 33.564C119.076 33.564 117.769 33.1853 116.607 32.428C115.444 31.6707 114.543 30.6573 113.903 29.388C113.273 28.1187 112.959 26.7267 112.959 25.212ZM119.743 22.7C119.092 23.3827 118.767 24.22 118.767 25.212C118.767 26.204 119.092 27.0413 119.743 27.724C120.404 28.4067 121.209 28.748 122.159 28.748C123.108 28.748 123.908 28.4067 124.559 27.724C125.22 27.0413 125.551 26.204 125.551 25.212C125.551 24.22 125.22 23.3827 124.559 22.7C123.908 22.0173 123.108 21.676 122.159 21.676C121.209 21.676 120.404 22.0173 119.743 22.7ZM136.243 31.404C134.824 29.74 134.115 27.676 134.115 25.212C134.115 22.748 134.824 20.6893 136.243 19.036C137.672 17.372 139.485 16.54 141.683 16.54C143.677 16.54 145.352 17.228 146.707 18.604V18.204C146.707 17.3507 147.133 16.924 147.987 16.924H151.187C152.04 16.924 152.467 17.3507 152.467 18.204V32.22C152.467 33.0733 152.04 33.5 151.187 33.5H147.987C147.133 33.5 146.707 33.0733 146.707 32.22V31.82C145.352 33.196 143.677 33.884 141.683 33.884C139.485 33.884 137.672 33.0573 136.243 31.404ZM140.899 22.7C140.248 23.3827 139.923 24.22 139.923 25.212C139.923 26.204 140.248 27.0413 140.899 27.724C141.56 28.4067 142.365 28.748 143.315 28.748C144.264 28.748 145.064 28.4067 145.715 27.724C146.376 27.0413 146.707 26.204 146.707 25.212C146.707 24.22 146.376 23.3827 145.715 22.7C145.064 22.0173 144.264 21.676 143.315 21.676C142.365 21.676 141.56 22.0173 140.899 22.7ZM172.471 32.22C172.471 33.0733 172.044 33.5 171.191 33.5H167.831C166.978 33.5 166.551 33.0733 166.551 32.22V24.124C166.551 23.3773 166.364 22.7853 165.991 22.348C165.628 21.9107 165.111 21.692 164.439 21.692C163.788 21.692 163.25 21.932 162.823 22.412C162.396 22.8813 162.183 23.58 162.183 24.508V32.22C162.183 33.0733 161.756 33.5 160.903 33.5H157.543C156.69 33.5 156.263 33.0733 156.263 32.22V18.204C156.263 17.3507 156.69 16.924 157.543 16.924H160.903C161.756 16.924 162.183 17.3507 162.183 18.204V18.508C163.378 17.196 164.839 16.54 166.567 16.54C167.655 16.54 168.647 16.812 169.543 17.356C170.45 17.8893 171.159 18.636 171.671 19.596C172.247 18.636 172.983 17.8893 173.879 17.356C174.775 16.812 175.767 16.54 176.855 16.54C178.53 16.54 179.932 17.1373 181.063 18.332C182.194 19.516 182.759 21.052 182.759 22.94V32.22C182.759 33.0733 182.332 33.5 181.479 33.5H178.119C177.266 33.5 176.839 33.0733 176.839 32.22V24.124C176.839 23.4307 176.647 22.8547 176.263 22.396C175.879 21.9267 175.367 21.692 174.727 21.692C174.076 21.692 173.538 21.9373 173.111 22.428C172.684 22.908 172.471 23.628 172.471 24.588V32.22ZM191.144 26.764C191.304 27.7027 191.714 28.4173 192.376 28.908C193.048 29.3987 193.949 29.644 195.08 29.644C196.722 29.644 198.136 29.2813 199.32 28.556C200.024 28.1187 200.621 28.1987 201.112 28.796L201.72 29.548C202.242 30.2093 202.21 30.8067 201.624 31.34C199.768 33.036 197.538 33.884 194.936 33.884C193.517 33.884 192.2 33.66 190.984 33.212C189.768 32.764 188.738 32.156 187.896 31.388C187.064 30.6093 186.413 29.6867 185.944 28.62C185.474 27.5533 185.24 26.4173 185.24 25.212C185.24 23.612 185.64 22.1507 186.44 20.828C187.24 19.4947 188.344 18.4493 189.752 17.692C191.16 16.924 192.712 16.54 194.408 16.54C196.072 16.54 197.581 16.9133 198.936 17.66C200.29 18.4067 201.346 19.4253 202.104 20.716C202.872 22.0067 203.256 23.4253 203.256 24.972C203.256 25.1747 203.24 25.3987 203.208 25.644C203.165 26.0067 203.021 26.284 202.776 26.476C202.541 26.668 202.226 26.764 201.832 26.764H191.144ZM194.312 20.78C193.49 20.78 192.808 21.004 192.264 21.452C191.73 21.9 191.373 22.5453 191.192 23.388H197.336C197.005 21.6493 195.997 20.78 194.312 20.78Z" fill="#0B001D"/>
<path d="M210.51 12.7451C210.51 5.70617 216.216 0 223.255 0C230.294 0 236 5.70617 236 12.7451C236 17.5549 233.336 21.7425 229.402 23.9123C222.287 28.8165 206.98 28.2359 206.98 28.2359C206.439 28.2357 206 27.7963 206 27.2549C206 26.886 206.204 26.5647 206.505 26.3974C207.519 25.438 210.682 21.8421 210.609 14.3467C210.544 13.8221 210.51 13.2875 210.51 12.7451Z" fill="#0B001D"/>
<path d="M222.027 5.05418C221.664 5.161 221.35 5.43993 221.19 5.80787C221.069 6.0868 221.041 6.38353 221.058 7.58233C221.063 8.62089 221.063 8.6743 221.129 8.79892C221.168 8.87014 221.532 9.2915 221.939 9.72473C222.705 10.5437 222.766 10.5912 223.003 10.5912C223.24 10.5912 223.3 10.5437 224.066 9.72473C224.474 9.2915 224.838 8.87607 224.877 8.79892C224.943 8.6743 224.943 8.62682 224.954 7.53485C224.959 6.79896 224.948 6.33012 224.932 6.18769C224.838 5.6239 224.474 5.19661 223.973 5.04824C223.714 4.98296 222.27 4.98296 222.027 5.05418Z" fill="white"/>
<path d="M217.597 9.93232C217.233 9.9976 216.847 10.2765 216.676 10.6148C216.522 10.9234 216.5 11.0896 216.5 12.0035C216.5 12.9234 216.522 13.0895 216.676 13.3922C216.781 13.594 217.035 13.8432 217.249 13.956C217.514 14.0925 217.751 14.1103 218.875 14.0984C219.873 14.0866 219.917 14.0866 220.032 14.0153C220.099 13.9738 220.49 13.5821 220.892 13.143C221.653 12.318 221.697 12.2528 221.697 11.9976C221.697 11.7424 221.653 11.6771 220.892 10.8522C220.49 10.413 220.104 10.0213 220.032 9.9798C219.911 9.90858 219.873 9.90858 218.842 9.90265C218.247 9.90858 217.69 9.92045 217.597 9.93232Z" fill="white"/>
<path d="M226.128 9.92649C225.946 9.97396 225.836 10.0689 225.114 10.8582C224.353 11.6831 224.309 11.7425 224.309 12.0036C224.309 12.2588 224.353 12.3241 225.114 13.149C225.516 13.5881 225.902 13.9798 225.973 14.0214C226.089 14.0926 226.133 14.0926 227.131 14.1045C228.525 14.1163 228.712 14.0807 229.07 13.7246C229.263 13.5347 229.384 13.3211 229.451 13.0422C229.517 12.7632 229.517 11.2499 229.451 10.971C229.357 10.5912 229.147 10.2944 228.817 10.0927C228.563 9.92649 228.359 9.90275 227.235 9.90868C226.679 9.90275 226.183 9.91462 226.128 9.92649Z" fill="white"/>
<path d="M222.777 13.4636C222.683 13.4992 222.474 13.7069 221.923 14.2945C221.521 14.7277 221.168 15.1372 221.129 15.2084C221.063 15.339 221.063 15.3805 221.052 16.4725C221.041 17.9621 221.069 18.152 221.405 18.5437C221.581 18.7514 221.78 18.8819 222.039 18.9531C222.298 19.0244 223.703 19.0244 223.962 18.9531C224.221 18.8819 224.419 18.7514 224.596 18.5437C224.926 18.1579 224.959 17.9561 224.948 16.4547C224.937 15.3805 224.937 15.333 224.871 15.2084C224.833 15.1372 224.469 14.7158 224.061 14.2826C223.449 13.6298 223.301 13.4814 223.196 13.4517C223.042 13.4043 222.92 13.4102 222.777 13.4636Z" fill="white"/>
</g>
<defs>
<clipPath id="clip0_2480_1830">
<rect width="236" height="47.5" fill="white"/>
</clipPath>
</defs>
</svg>
