<svg width="120" height="48" viewBox="0 0 120 48" fill="none" xmlns="http://www.w3.org/2000/svg">
<g clip-path="url(#clip0_2506_502)">
<circle cx="21" cy="23.75" r="21" fill="#DB4A0D"/>
<path d="M19.67 8.36912C13.3763 19.1864 25.0543 22.2385 25.2377 32.0171C25.2393 32.1044 25.3491 32.1483 25.4127 32.0884C36.2998 21.8338 27.2751 16.2541 19.8313 8.34736C19.7856 8.29881 19.7036 8.31149 19.67 8.36912Z" fill="#FEFCE8" stroke="white"/>
<path d="M16.2642 39.0097C17.1105 30.2665 10.3611 28.6983 16.1511 21.3609C16.1931 21.3077 16.2783 21.3086 16.3159 21.3648C21.0493 28.4393 25.1326 32.2325 16.4306 39.1001C16.3612 39.1549 16.2557 39.0977 16.2642 39.0097Z" fill="white" stroke="white"/>
<path d="M55.808 32.22C55.808 33.0733 55.3813 33.5 54.528 33.5H51.168C50.3147 33.5 49.888 33.0733 49.888 32.22V18.204C49.888 17.3507 50.3147 16.924 51.168 16.924H54.528C55.3813 16.924 55.808 17.3507 55.808 18.204V18.556C56.8747 17.2547 58.3253 16.604 60.16 16.604C61.8987 16.604 63.344 17.18 64.496 18.332C65.648 19.484 66.224 21.02 66.224 22.94V32.22C66.224 33.0733 65.7973 33.5 64.944 33.5H61.584C60.7307 33.5 60.304 33.0733 60.304 32.22V24.124C60.304 23.4307 60.096 22.8547 59.68 22.396C59.2747 21.9267 58.752 21.692 58.112 21.692C57.44 21.692 56.8853 21.9373 56.448 22.428C56.0213 22.908 55.808 23.628 55.808 24.588V32.22ZM68.7085 25.212C68.7085 22.748 69.4178 20.6893 70.8365 19.036C72.2658 17.372 74.0792 16.54 76.2765 16.54C78.2712 16.54 79.9458 17.228 81.3005 18.604V18.204C81.3005 17.3507 81.7272 16.924 82.5805 16.924H85.7805C86.6338 16.924 87.0605 17.3507 87.0605 18.204V32.364C87.0605 35.0627 86.2498 37.164 84.6285 38.668C83.0178 40.172 80.8365 40.924 78.0845 40.924C75.2898 40.924 72.8418 39.9907 70.7405 38.124C70.1645 37.6013 70.1112 37.004 70.5805 36.332L71.2525 35.372C71.7112 34.7107 72.3085 34.6093 73.0445 35.068C74.3245 35.8467 75.6845 36.236 77.1245 36.236C78.3832 36.236 79.3912 35.9213 80.1485 35.292C80.9165 34.6733 81.3005 33.8147 81.3005 32.716V31.532C79.9245 32.8867 78.2498 33.564 76.2765 33.564C74.8258 33.564 73.5192 33.1853 72.3565 32.428C71.1938 31.6707 70.2925 30.6573 69.6525 29.388C69.0232 28.1187 68.7085 26.7267 68.7085 25.212ZM75.4925 22.7C74.8418 23.3827 74.5165 24.22 74.5165 25.212C74.5165 26.204 74.8418 27.0413 75.4925 27.724C76.1538 28.4067 76.9592 28.748 77.9085 28.748C78.8578 28.748 79.6578 28.4067 80.3085 27.724C80.9698 27.0413 81.3005 26.204 81.3005 25.212C81.3005 24.22 80.9698 23.3827 80.3085 22.7C79.6578 22.0173 78.8578 21.676 77.9085 21.676C76.9592 21.676 76.1538 22.0173 75.4925 22.7Z" fill="#0B001D"/>
<path d="M94.5098 12.7451C94.5098 5.70617 100.216 0 107.255 0C114.294 0 120 5.70617 120 12.7451C120 17.5549 117.336 21.7425 113.402 23.9123C106.287 28.8165 90.9804 28.2359 90.9804 28.2359C90.4391 28.2357 90 27.7963 90 27.2549C90 26.886 90.2037 26.5647 90.5048 26.3974C91.5194 25.438 94.6816 21.8421 94.6095 14.3467C94.5437 13.8221 94.5098 13.2875 94.5098 12.7451Z" fill="#0B001D"/>
<path d="M106.027 5.05418C105.664 5.161 105.35 5.43993 105.19 5.80787C105.069 6.0868 105.041 6.38353 105.058 7.58233C105.063 8.62089 105.063 8.6743 105.129 8.79892C105.168 8.87014 105.532 9.2915 105.939 9.72473C106.705 10.5437 106.766 10.5912 107.003 10.5912C107.24 10.5912 107.3 10.5437 108.066 9.72473C108.474 9.2915 108.838 8.87607 108.877 8.79892C108.943 8.6743 108.943 8.62682 108.954 7.53485C108.959 6.79896 108.948 6.33012 108.932 6.18769C108.838 5.6239 108.474 5.19661 107.973 5.04824C107.714 4.98296 106.27 4.98296 106.027 5.05418Z" fill="white"/>
<path d="M101.597 9.93232C101.233 9.9976 100.847 10.2765 100.676 10.6148C100.522 10.9234 100.5 11.0896 100.5 12.0035C100.5 12.9234 100.522 13.0895 100.676 13.3922C100.781 13.594 101.035 13.8432 101.249 13.956C101.514 14.0925 101.751 14.1103 102.875 14.0984C103.873 14.0866 103.917 14.0866 104.032 14.0153C104.099 13.9738 104.49 13.5821 104.892 13.143C105.653 12.318 105.697 12.2528 105.697 11.9976C105.697 11.7424 105.653 11.6771 104.892 10.8522C104.49 10.413 104.104 10.0213 104.032 9.9798C103.911 9.90858 103.873 9.90858 102.842 9.90265C102.247 9.90858 101.69 9.92045 101.597 9.93232Z" fill="white"/>
<path d="M110.128 9.92649C109.946 9.97396 109.836 10.0689 109.114 10.8582C108.353 11.6831 108.309 11.7425 108.309 12.0036C108.309 12.2588 108.353 12.3241 109.114 13.149C109.516 13.5881 109.902 13.9798 109.973 14.0214C110.089 14.0926 110.133 14.0926 111.131 14.1045C112.525 14.1163 112.712 14.0807 113.07 13.7246C113.263 13.5347 113.384 13.3211 113.451 13.0422C113.517 12.7632 113.517 11.2499 113.451 10.971C113.357 10.5912 113.147 10.2944 112.817 10.0927C112.563 9.92649 112.359 9.90275 111.235 9.90868C110.679 9.90275 110.183 9.91462 110.128 9.92649Z" fill="white"/>
<path d="M106.777 13.4636C106.683 13.4992 106.474 13.7069 105.923 14.2945C105.521 14.7277 105.168 15.1372 105.129 15.2084C105.063 15.339 105.063 15.3805 105.052 16.4725C105.041 17.9621 105.069 18.152 105.405 18.5437C105.581 18.7514 105.78 18.8819 106.039 18.9531C106.298 19.0244 107.703 19.0244 107.962 18.9531C108.221 18.8819 108.419 18.7514 108.596 18.5437C108.926 18.1579 108.959 17.9561 108.948 16.4547C108.937 15.3805 108.937 15.333 108.871 15.2084C108.833 15.1372 108.469 14.7158 108.061 14.2826C107.449 13.6298 107.301 13.4814 107.196 13.4517C107.042 13.4043 106.92 13.4102 106.777 13.4636Z" fill="white"/>
</g>
<defs>
<clipPath id="clip0_2506_502">
<rect width="120" height="47.5" fill="white"/>
</clipPath>
</defs>
</svg>
