<?xml version="1.0" encoding="UTF-8" standalone="no"?>
<!-- Created with Inkscape (http://www.inkscape.org/) -->

<svg
   width="18.453089mm"
   height="11.622618mm"
   viewBox="0 0 18.453089 11.622618"
   version="1.1"
   id="svg5"
   xml:space="preserve"
   inkscape:export-filename="title2.svg"
   inkscape:export-xdpi="30.282194"
   inkscape:export-ydpi="30.282194"
   xmlns:inkscape="http://www.inkscape.org/namespaces/inkscape"
   xmlns:sodipodi="http://sodipodi.sourceforge.net/DTD/sodipodi-0.dtd"
   xmlns="http://www.w3.org/2000/svg"
   xmlns:svg="http://www.w3.org/2000/svg"><sodipodi:namedview
     id="namedview7"
     pagecolor="#ffffff"
     bordercolor="#000000"
     borderopacity="0.25"
     inkscape:showpageshadow="2"
     inkscape:pageopacity="0.0"
     inkscape:pagecheckerboard="0"
     inkscape:deskcolor="#d1d1d1"
     inkscape:document-units="mm"
     showgrid="false"
     inkscape:zoom="5.4612104"
     inkscape:cx="33.60061"
     inkscape:cy="11.535904"
     inkscape:window-width="1366"
     inkscape:window-height="695"
     inkscape:window-x="0"
     inkscape:window-y="0"
     inkscape:window-maximized="1"
     inkscape:current-layer="text113-3" /><defs
     id="defs2" /><g
     inkscape:label="Layer 1"
     inkscape:groupmode="layer"
     id="layer1"
     transform="translate(2.6063401,-146.50347)"><g
       aria-label="ng+"
       id="text113-3"
       style="font-weight:bold;font-size:12.7px;font-family:Ubuntu;-inkscape-font-specification:'Ubuntu Bold';letter-spacing:-0.66675px;fill:#0b001d;stroke-width:0.264583"><path
         d="m 2.9435598,151.66179 v 1.2319 h -1.5621 v -1.1684 q 0,-0.5588 -0.3175,-0.8128 -0.31749996,-0.2667 -0.85089996,-0.2667 -0.39369999,0 -0.71119998,0.1016 -0.3048,0.0889 -0.54609996,0.2159 v 1.9304 h -1.5621 v -2.032 q 0,-0.3048 0.127,-0.4953 0.127,-0.2032 0.381,-0.3683 0.381,-0.254 0.9779,-0.4191 0.60959996,-0.1778 1.34619994,-0.1778 1.28269996,0 1.99389996,0.5715 0.7239,0.5715 0.7239,1.6891 z m -5.5498999,0.6096 h 1.5621 v 3.2893 q -0.1016,0.0381 -0.2921,0.0635 -0.1905,0.0381 -0.4191,0.0381 -0.4318,0 -0.6477,-0.1524 -0.2032,-0.1651 -0.2032,-0.5715 z m 3.9877999,0 h 1.5621 v 3.2893 q -0.0889,0.0381 -0.2921,0.0635 -0.1905,0.0381 -0.4064,0.0381 -0.4445,0 -0.6604,-0.1524 -0.2032,-0.1651 -0.2032,-0.5715 z"
         style="font-weight:600;font-family:'Baloo 2';-inkscape-font-specification:'Baloo 2 Semi-Bold'"
         id="path1360" /><path
         d="m 6.4043094,155.37019 q -0.7493,0 -1.3843,-0.2794 -0.635,-0.2921 -1.0159999,-0.9525 -0.381,-0.6604 -0.381,-1.7399 0,-0.9906 0.381,-1.651 0.3936999,-0.6731 1.0921999,-1.0033 0.7112,-0.3429 1.6256,-0.3429 0.6477,0 1.1938,0.1651 0.5588,0.1651 0.889,0.381 0.2159,0.1397 0.3429,0.3429 0.1397,0.1905 0.1397,0.4699 v 3.9624 h -1.524 v -3.8227 q -0.1651,-0.1016 -0.4064,-0.1778 -0.2413,-0.0762 -0.5969,-0.0762 -0.6985,0 -1.143,0.4318 -0.4318,0.4318 -0.4318,1.3208 0,0.9779 0.4191,1.3716 0.4318,0.3937 1.0541,0.3937 0.4826,0 0.7747,-0.1651 0.3048,-0.1651 0.508,-0.3556 l 0.0508,1.27 q -0.2286,0.1778 -0.635,0.3175 -0.3937,0.1397 -0.9525,0.1397 z m 1.3843,0.254 v -1.2446 h 1.4986 v 1.2954 q 0,0.8636 -0.3937,1.397 -0.3937,0.5461 -1.0795,0.8001 -0.6731,0.254 -1.5113,0.254 -0.6604,0 -1.1557,-0.127 -0.4826,-0.127 -0.7112,-0.2667 -0.4190999,-0.254 -0.4190999,-0.6985 0,-0.2286 0.1016,-0.4064 0.1015999,-0.1778 0.2412999,-0.2667 0.3175,0.2032 0.7874,0.3556 0.4826,0.1524 1.016,0.1524 0.762,0 1.1938,-0.3048 0.4318,-0.2921 0.4318,-0.9398 z"
         style="font-weight:600;font-family:'Baloo 2';-inkscape-font-specification:'Baloo 2 Semi-Bold'"
         id="path1362" /><path
         d="m 15.237149,152.47459 h -5.1435 q -0.0635,-0.1143 -0.1142999,-0.254 -0.0381,-0.1524 -0.0381,-0.3429 0,-0.3429 0.1650999,-0.4953 0.1651,-0.1651 0.4318,-0.1651 h 5.1562 q 0.0508,0.1016 0.1016,0.2667 0.0508,0.1651 0.0508,0.3556 0,0.3302 -0.1651,0.4826 -0.1651,0.1524 -0.4445,0.1524 z m -1.6129,-2.9337 v 5.2705 q -0.1143,0.0254 -0.2921,0.0635 -0.1778,0.0254 -0.3683,0.0254 -0.381,0 -0.5715,-0.1397 -0.1905,-0.1397 -0.1905,-0.5588 v -5.2578 q 0.1143,-0.0254 0.2921,-0.0635 0.1778,-0.0381 0.381,-0.0381 0.3683,0 0.5588,0.1524 0.1905,0.1397 0.1905,0.5461 z"
         style="font-weight:600;font-family:'Baloo 2';-inkscape-font-specification:'Baloo 2 Semi-Bold'"
         id="path1364" /></g></g></svg>
