<svg width="88" height="50" viewBox="0 0 88 50" fill="none" xmlns="http://www.w3.org/2000/svg">
<path d="M31.7007 25.5071H28.1096V15.7735C28.1096 14.1355 27.7001 12.9385 26.8811 12.1825C26.0831 11.4055 25.0751 11.017 23.8571 11.017C22.5761 11.017 21.4841 11.4265 20.581 12.2455C19.699 13.0645 19.258 14.4085 19.258 16.2775V25.5071H15.667V15.7735C15.667 14.1355 15.2575 12.9385 14.4385 12.1825C13.6405 11.4055 12.6325 11.017 11.4144 11.017C10.1334 11.017 9.04143 11.4265 8.13842 12.2455C7.25641 13.0645 6.8154 14.4085 6.8154 16.2775V25.5071H3.22437V8.15044H6.8154V11.773C7.34041 10.408 8.12792 9.42095 9.17793 8.81195C10.2279 8.18194 11.383 7.86694 12.643 7.86694C13.966 7.86694 15.163 8.20294 16.234 8.87495C17.326 9.52596 18.1555 10.576 18.7225 12.025C19.3315 10.597 20.1925 9.54696 21.3056 8.87495C22.4396 8.20294 23.6471 7.86694 24.9281 7.86694C26.8811 7.86694 28.4981 8.49695 29.7791 9.75696C31.0602 10.996 31.7007 12.8755 31.7007 15.3955V25.5071Z" fill="#0B001D" stroke="#0B001D" stroke-width="0.5"/>
<path d="M36.268 5.15805C35.512 5.15805 34.9345 4.95855 34.5355 4.55954C34.1575 4.16054 33.9685 3.67753 33.9685 3.11052C33.9685 2.54352 34.1575 2.05001 34.5355 1.63001C34.9345 1.21 35.512 1 36.268 1C37.024 1 37.6015 1.21 38.0005 1.63001C38.3996 2.05001 38.5991 2.54352 38.5991 3.11052C38.5991 3.71953 38.3786 4.21304 37.9375 4.59104C37.5175 4.96905 36.961 5.15805 36.268 5.15805ZM38.0635 25.5073H34.4725V8.15057H38.0635V25.5073Z" fill="#0B001D" stroke="#0B001D" stroke-width="0.5"/>
<path d="M44.5835 25.5073H40.9924V2.19702H44.5835V25.5073Z" fill="#0B001D" stroke="#0B001D" stroke-width="0.5"/>
<path d="M11.0799 48.7792H8.87489C5.11585 48.7792 3.23633 46.9521 3.23633 43.2981V34.478H0.747803V31.4225H3.23633V27.1069H6.85887V31.4225H11.0484V34.478H6.85887V43.0461C6.85887 44.0331 7.04787 44.7156 7.42587 45.0936C7.80387 45.4716 8.44438 45.6606 9.34739 45.6606H11.0799V48.7792Z" fill="#0B001D" stroke="#0B001D" stroke-width="0.5"/>
<path d="M20.5915 49.0001C18.0505 49.0001 15.982 48.2126 14.386 46.6376C12.79 45.0415 11.9919 42.8575 11.9919 40.0855C11.9919 37.2925 12.8005 35.1189 14.4175 33.5649C16.0555 31.9899 18.1135 31.2024 20.5915 31.2024C22.3766 31.2024 23.8991 31.5699 25.1591 32.3049C26.4191 33.0189 27.3746 33.9954 28.0256 35.2344C28.6766 36.4524 29.0021 37.7965 29.0021 39.2665C29.0021 39.8545 28.9601 40.369 28.8761 40.81H15.52C15.625 42.658 16.1395 44.002 17.0635 44.842C18.0085 45.661 19.132 46.0706 20.434 46.0706C21.631 46.0706 22.6286 45.7765 23.4266 45.1885C24.2456 44.6005 24.7706 43.7815 25.0016 42.7315H28.8446C28.3826 44.7895 27.3956 46.3541 25.8836 47.4251C24.3926 48.4751 22.6286 49.0001 20.5915 49.0001ZM25.3796 39.172C25.3796 36.946 24.6026 35.4234 23.0486 34.6044C22.2925 34.2474 21.4735 34.0689 20.5915 34.0689C19.2475 34.0689 18.0925 34.4784 17.1265 35.2974C16.1815 36.1164 15.646 37.408 15.52 39.172H25.3796Z" fill="#0B001D" stroke="#0B001D" stroke-width="0.5"/>
<path d="M47.2745 48.7793H43.6834V39.0457C43.6834 37.3657 43.2529 36.1372 42.3919 35.3602C41.5309 34.5622 40.4704 34.1632 39.2104 34.1632C38.3284 34.1632 37.5304 34.3522 36.8164 34.7302C36.1023 35.0872 35.5353 35.6647 35.1153 36.4627C34.6953 37.2397 34.4853 38.2687 34.4853 39.5498V48.7793H30.8943V31.4227H34.4853V35.2342C35.0313 33.8062 35.8608 32.7667 36.9739 32.1157C38.0869 31.4647 39.2944 31.1392 40.5964 31.1392C42.5284 31.1392 44.1244 31.7692 45.3844 33.0292C46.6445 34.2682 47.2745 36.1477 47.2745 38.6677V48.7793Z" fill="#0B001D" stroke="#0B001D" stroke-width="0.5"/>
<path d="M56.8184 49.0001C54.4664 49.0001 52.6604 48.4751 51.4003 47.4251C50.1613 46.3541 49.4158 44.968 49.1638 43.267H52.6604C52.7654 44.17 53.1539 44.926 53.8259 45.535C54.4979 46.144 55.4954 46.4486 56.8184 46.4486C57.7634 46.4486 58.4564 46.2176 58.8974 45.7555C59.3594 45.2725 59.5904 44.7055 59.5904 44.0545C59.5904 43.4455 59.4014 42.9625 59.0234 42.6055C58.6454 42.2485 58.1729 41.9755 57.6059 41.7865C57.0389 41.5765 56.2619 41.3665 55.2749 41.1565C53.9519 40.8625 52.8914 40.5475 52.0933 40.2115C51.2953 39.8755 50.6338 39.403 50.1088 38.794C49.6048 38.164 49.3528 37.282 49.3528 36.1479C49.3528 35.2449 49.5733 34.4259 50.0143 33.6909C50.4553 32.9349 51.1273 32.3364 52.0304 31.8954C52.9544 31.4334 54.1409 31.2024 55.5899 31.2024C57.0809 31.2024 58.3199 31.4544 59.3069 31.9584C60.3149 32.4624 61.1024 33.1449 61.6694 34.0059C62.2365 34.8669 62.5935 35.8434 62.7405 36.9355H59.3384C59.2124 36.0324 58.8344 35.2869 58.2044 34.6989C57.5954 34.0899 56.6924 33.7854 55.4954 33.7854C54.5084 33.7854 53.7839 34.0164 53.3219 34.4784C52.8809 34.9404 52.6604 35.5074 52.6604 36.1795C52.6604 36.8935 52.9754 37.45 53.6054 37.849C54.2354 38.227 55.2749 38.5735 56.7239 38.8885C57.9629 39.1825 59.0549 39.4975 59.9999 39.8335C61.953 40.5475 62.9295 41.9755 62.9295 44.1175C62.9295 45.4615 62.415 46.6166 61.3859 47.5826C60.3569 48.5276 58.8344 49.0001 56.8184 49.0001Z" fill="#0B001D" stroke="#0B001D" stroke-width="0.5"/>
<path d="M72.6621 49.0001C70.1211 49.0001 68.0525 48.2126 66.4565 46.6376C64.8605 45.0415 64.0625 42.8575 64.0625 40.0855C64.0625 37.2925 64.871 35.1189 66.488 33.5649C68.126 31.9899 70.1841 31.2024 72.6621 31.2024C74.4471 31.2024 75.9696 31.5699 77.2296 32.3049C78.4896 33.0189 79.4452 33.9954 80.0962 35.2344C80.7472 36.4524 81.0727 37.7965 81.0727 39.2665C81.0727 39.8545 81.0307 40.369 80.9467 40.81H67.5905C67.6955 42.658 68.21 44.002 69.134 44.842C70.0791 45.661 71.2026 46.0706 72.5046 46.0706C73.7016 46.0706 74.6991 45.7765 75.4971 45.1885C76.3161 44.6005 76.8411 43.7815 77.0721 42.7315H80.9152C80.4532 44.7895 79.4662 46.3541 77.9541 47.4251C76.4631 48.4751 74.6991 49.0001 72.6621 49.0001ZM77.4501 39.172C77.4501 36.946 76.6731 35.4234 75.1191 34.6044C74.3631 34.2474 73.5441 34.0689 72.6621 34.0689C71.3181 34.0689 70.1631 34.4784 69.1971 35.2974C68.252 36.1164 67.7165 37.408 67.5905 39.172H77.4501Z" fill="#0B001D" stroke="#0B001D" stroke-width="0.5"/>
<path d="M84.7575 28.4303C84.0015 28.4303 83.424 28.2308 83.025 27.8317C82.647 27.4327 82.458 26.9497 82.458 26.3827C82.458 25.8157 82.647 25.3222 83.025 24.9022C83.424 24.4822 84.0015 24.2722 84.7575 24.2722C85.5135 24.2722 86.091 24.4822 86.4901 24.9022C86.8891 25.3222 87.0886 25.8157 87.0886 26.3827C87.0886 26.9917 86.8681 27.4852 86.427 27.8632C86.007 28.2413 85.4505 28.4303 84.7575 28.4303ZM86.553 48.7795H82.962V31.4228H86.553V48.7795Z" fill="#0B001D" stroke="#0B001D" stroke-width="0.5"/>
</svg>
