<svg width="65" height="64" viewBox="0 0 65 64" fill="none" xmlns="http://www.w3.org/2000/svg">
<path d="M59.0755 51.937C53.2133 59.6777 44.01 64.1574 34.3013 63.9958C24.5926 63.8341 15.5435 59.0505 9.93509 51.0958L9.94142 54.9371C2.5674 48.3889 -0.165858 38.0282 3.0004 28.6822L0 30.7247C1.51269 24.9776 4.97601 19.9072 9.77641 16.3909L6.43336 16.9178C10.7915 10.0691 18.4217 5.96455 26.5229 6.12851L26.4947 0C30.5367 2.78635 34.7438 5.26254 38.999 7.39182C43.559 9.60567 45.7413 15.0439 43.9579 19.9279C37.6866 14.9237 28.522 15.8984 23.4272 22.1345C18.3323 28.3706 19.2049 37.5454 25.3839 42.7093C31.5629 47.8733 40.7469 47.1029 45.9793 40.9817C51.2117 34.8606 50.5435 25.6686 44.4682 20.3593C47.2996 21.2656 50.0976 22.846 52.3526 24.8062L49.4858 47.8313L49.5865 53.771L59.0755 51.937Z" fill="url(#paint0_radial_1183_1588)"/>
<path d="M44.4678 20.3594C50.5431 25.6686 51.2112 34.8606 45.9788 40.9818C40.7464 47.1029 31.5625 47.8733 25.3834 42.7094C24.4694 41.9455 23.6745 41.0921 22.9948 40.1751L20.8672 41.2563L22.7181 46.5241L35.674 49.2292L49.5054 49.014L49.4854 47.8314L52.3521 24.8062C50.0972 22.8461 47.2991 21.2656 44.4678 20.3594Z" fill="url(#paint1_linear_1183_1588)"/>
<path d="M24.7315 20.7351C18.2098 26.8148 15.7333 36.0853 18.3543 44.6074C20.9753 53.1294 28.2334 59.406 37.0444 60.77C45.8555 62.134 54.6717 58.3459 59.7223 51.0318L52.8318 52.5146L44.1911 42.7426C41.5538 44.9309 38.2346 46.1287 34.8077 46.1288C32.8777 46.1288 30.9667 45.7487 29.1836 45.0102C27.4006 44.2716 25.7805 43.1891 24.4158 41.8244C23.0512 40.4597 21.9686 38.8396 21.2301 37.0566C20.4915 35.2735 20.1114 33.3625 20.1114 31.4325C20.1121 29.4289 20.5225 27.4466 21.3173 25.6074C22.1122 23.7682 23.2748 22.1109 24.7336 20.7375L24.7315 20.7351Z" fill="url(#paint2_linear_1183_1588)"/>
<path d="M20.2003 29.8103C18.7849 41.9004 27.224 52.9303 39.2635 54.726C51.303 56.5217 62.5934 48.4345 64.748 36.4856L59.4254 39.4688L49.163 37.1677C46.9614 42.8065 40.8606 46.1283 34.8073 46.1288C26.6908 46.1288 20.111 39.549 20.111 31.4325C20.1146 30.8912 20.1482 30.3506 20.2115 29.8131L20.2003 29.8103Z" fill="url(#paint3_linear_1183_1588)"/>
<path d="M62.1589 20.7593L60.6954 25.7227C58.1215 27.7208 51.7033 28.4898 51.7114 32.0378C51.7114 40.1543 42.9248 46.129 34.8083 46.129C30.3985 46.125 26.2236 44.1411 23.4355 40.7247L23.425 40.7289C29.9557 49.2157 41.6228 51.8149 51.1385 46.903C60.6542 41.9911 65.293 30.9749 62.1589 20.7593Z" fill="url(#paint4_linear_1183_1588)"/>
<path d="M44.9988 4.98096C53.7434 14.6116 54.5866 29.0115 47.0431 39.5833L47.0362 39.5845C45.6943 41.5976 43.8761 43.2483 41.743 44.39C39.61 45.5316 37.2281 46.1291 34.8087 46.1292C31.3178 46.1255 27.9422 44.8793 25.2864 42.6136L25.189 42.6272C32.0077 48.2277 41.5369 49.1463 49.2999 44.9516C57.0629 40.7569 61.5166 32.2826 60.5688 23.5098C59.6209 14.7371 53.46 7.40954 44.9988 4.98122L44.9988 4.98096Z" fill="url(#paint5_linear_1183_1588)"/>
<defs>
<radialGradient id="paint0_radial_1183_1588" cx="0" cy="0" r="1" gradientUnits="userSpaceOnUse" gradientTransform="translate(4.08475 31.4769) rotate(34.4629) scale(49.3542 38.734)">
<stop stop-color="#FC2002"/>
<stop offset="1" stop-color="#F56A00"/>
</radialGradient>
<linearGradient id="paint1_linear_1183_1588" x1="50.8248" y1="31.8731" x2="49.3178" y2="25.2464" gradientUnits="userSpaceOnUse">
<stop stop-color="#E42510"/>
<stop offset="1" stop-color="#D25110"/>
</linearGradient>
<linearGradient id="paint2_linear_1183_1588" x1="22.1477" y1="47.1944" x2="51.6854" y2="55.5448" gradientUnits="userSpaceOnUse">
<stop stop-color="#F24301"/>
<stop offset="1" stop-color="#A72E01"/>
</linearGradient>
<linearGradient id="paint3_linear_1183_1588" x1="10.728" y1="36.9434" x2="63.6235" y2="37.665" gradientUnits="userSpaceOnUse">
<stop stop-color="#340C06"/>
<stop offset="1" stop-color="#F3440D"/>
</linearGradient>
<linearGradient id="paint4_linear_1183_1588" x1="43.7389" y1="47.3428" x2="50.7603" y2="44.0582" gradientUnits="userSpaceOnUse">
<stop stop-color="#C0350E"/>
<stop offset="1" stop-color="#E33A0B"/>
</linearGradient>
<linearGradient id="paint5_linear_1183_1588" x1="26.1388" y1="44.8601" x2="57.2627" y2="18.9482" gradientUnits="userSpaceOnUse">
<stop stop-color="#E95F2F"/>
<stop offset="1" stop-color="#A42800"/>
</linearGradient>
</defs>
</svg>
