<svg width="32" height="16" viewBox="0 0 32 16" fill="none" xmlns="http://www.w3.org/2000/svg">
<g clip-path="url(#clip0_1145_2232)">
<path d="M32 13.7143C32 14.9786 30.9786 16 29.7143 16H2.28571C1.02143 16 0 14.9786 0 13.7143C0 12.45 1.02143 11.4286 2.28571 11.4286H29.7143C30.9786 11.4286 32 12.45 32 13.7143Z" fill="white"/>
<path d="M0 2.28571C0 1.02143 1.02143 0 2.28571 0H29.7143C30.9786 0 32 1.02143 32 2.28571C32 3.55 30.9786 4.57143 29.7143 4.57143H2.28571C1.02143 4.57143 0 3.55 0 2.28571Z" fill="white"/>
</g>
<defs>
<clipPath id="clip0_1145_2232">
<rect width="32" height="16" fill="white"/>
</clipPath>
</defs>
</svg>
