<?xml version="1.0" encoding="UTF-8" standalone="no"?>
<!-- Created with Inkscape (http://www.inkscape.org/) -->

<svg
   width="691.18512mm"
   height="691.18536mm"
   viewBox="0 0 691.18511 691.18539"
   version="1.1"
   id="svg182"
   xml:space="preserve"
   inkscape:version="1.2.2 (b0a8486541, 2022-12-01)"
   sodipodi:docname="og.svg"
   inkscape:export-filename="32.png"
   inkscape:export-xdpi="1.1759512"
   inkscape:export-ydpi="1.1759512"
   xmlns:inkscape="http://www.inkscape.org/namespaces/inkscape"
   xmlns:sodipodi="http://sodipodi.sourceforge.net/DTD/sodipodi-0.dtd"
   xmlns:xlink="http://www.w3.org/1999/xlink"
   xmlns="http://www.w3.org/2000/svg"
   xmlns:svg="http://www.w3.org/2000/svg"><sodipodi:namedview
     id="namedview184"
     pagecolor="#ffffff"
     bordercolor="#000000"
     borderopacity="0.25"
     inkscape:showpageshadow="2"
     inkscape:pageopacity="0.0"
     inkscape:pagecheckerboard="0"
     inkscape:deskcolor="#d1d1d1"
     inkscape:document-units="mm"
     showgrid="false"
     inkscape:zoom="0.08"
     inkscape:cx="-75"
     inkscape:cy="1637.5"
     inkscape:window-width="1366"
     inkscape:window-height="695"
     inkscape:window-x="0"
     inkscape:window-y="0"
     inkscape:window-maximized="1"
     inkscape:current-layer="layer13"
     inkscape:lockguides="true"
     showguides="false" /><defs
     id="defs179"><linearGradient
       inkscape:collect="always"
       id="linearGradient7011"><stop
         style="stop-color:#ff6d00;stop-opacity:1;"
         offset="0"
         id="stop7007" /><stop
         style="stop-color:#ff8500;stop-opacity:1;"
         offset="1"
         id="stop7009" /></linearGradient><radialGradient
       inkscape:collect="always"
       xlink:href="#linearGradient7011"
       id="radialGradient53428"
       gradientUnits="userSpaceOnUse"
       gradientTransform="translate(-1504.5075,-36.663963)"
       cx="1493.3513"
       cy="387.09082"
       fx="1493.3513"
       fy="387.09082"
       r="345.59268" /></defs><g
     inkscape:groupmode="layer"
     id="layer13"
     inkscape:label="Layer 10"
     transform="translate(356.74867,-4.8341841)"><rect
       style="font-variation-settings:normal;display:inline;opacity:1;fill:url(#radialGradient53428);fill-opacity:1;stroke:none;stroke-width:5.74247;stroke-linecap:butt;stroke-linejoin:miter;stroke-miterlimit:4;stroke-dasharray:none;stroke-dashoffset:0;stroke-opacity:1;stop-color:#000000;stop-opacity:1"
       id="rect53412"
       width="691.18536"
       height="691.18542"
       x="-356.74884"
       y="4.8341713"
       rx="345.59268"
       ry="345.59271"
       inkscape:export-filename="./rect37066222.png"
       inkscape:export-xdpi="96"
       inkscape:export-ydpi="96" /><g
       id="g53426"
       transform="translate(184.12326,986.64179)"
       style="display:inline;fill:#ffffff;fill-opacity:1"><path
         id="path53414"
         style="font-variation-settings:normal;display:inline;opacity:1;vector-effect:none;fill:#ffffff;fill-opacity:1;stroke:none;stroke-width:0.0826022;stroke-linecap:butt;stroke-linejoin:miter;stroke-miterlimit:4;stroke-dasharray:none;stroke-dashoffset:0;stroke-opacity:1;-inkscape-stroke:none;stop-color:#000000;stop-opacity:1"
         d="m 20.284339,-475.92433 c -48.1462,63.5743 -123.732699,100.3658 -203.469699,99.0381 -79.7369,-1.3277 -154.0567,-40.6152 -200.1188,-105.9474 l 0.052,31.549 c -60.5625,-53.7801 -83.0107,-138.8726 -57.0063,-215.6308 l -24.6422,16.7748 c 12.4237,-47.2002 40.8678,-88.8434 80.2933,-117.7223 l -27.4564,4.3267 c 35.7929,-56.2477 98.4601,-89.9583 164.9948,-88.6117 l -0.2321,-50.33321 c 33.1971,22.8842 67.7502,43.22101 102.6976,60.70871 37.4509,18.1823 55.374199,62.8467 40.7276,102.9583 -51.5064,-41.0988 -126.7746,-33.0944 -168.6184,18.1225 -41.8438,51.2169 -34.6776,126.5695 16.0705,168.9807 50.7481,42.4112 126.1757,36.0841 169.149099,-14.1888 42.9734,-50.2729 37.4862,-125.7664 -12.4104,-169.3709 23.254,7.4429 46.2345,20.4229 64.7543,36.5217 l -23.5451,189.1046 0.8269,48.7825 z"
         sodipodi:nodetypes="csccccccccccsssccccc" /><path
         id="path53416"
         style="font-variation-settings:normal;display:inline;opacity:1;vector-effect:none;fill:#ffffff;fill-opacity:1;stroke:none;stroke-width:0.0826022;stroke-linecap:butt;stroke-linejoin:miter;stroke-miterlimit:4;stroke-dasharray:none;stroke-dashoffset:0;stroke-opacity:1;-inkscape-stroke:none;stop-color:#000000;stop-opacity:1"
         d="m -99.684961,-735.27063 c 49.8965,43.6044 55.3834,119.0982 12.4101,169.371 -42.973399,50.2729 -118.400799,56.6 -169.148899,14.1888 -7.5073,-6.274 -14.0356,-13.2831 -19.6179,-20.8142 l -17.4739,8.8801 15.2012,43.2645 106.4064,22.2167 113.597199,-1.7678 -0.1648,-9.7126 23.5448,-189.1047 c -18.5198,-16.0988 -41.5002,-29.0789 -64.7542,-36.5218 z" /><path
         id="path53418"
         style="font-variation-settings:normal;opacity:1;vector-effect:none;fill:#ffffff;fill-opacity:1;stroke:none;stroke-width:0.0826022;stroke-linecap:butt;stroke-linejoin:miter;stroke-miterlimit:4;stroke-dasharray:none;stroke-dashoffset:0;stroke-opacity:1;-inkscape-stroke:none;stop-color:#000000;stop-opacity:1"
         d="m -261.77816,-732.18423 c -53.5624,49.9322 -73.9018,126.0706 -52.3756,196.0619 21.5262,69.9913 81.1365,121.5407 153.5012,132.7433 72.364799,11.2027 144.771799,-19.9093 186.252799,-79.9796 l -56.5919,12.1781 -70.965199,-80.2571 a 120.70007,120.70008 0 0 1 -77.0661,27.8112 120.70007,120.70008 0 0 1 -120.7001,-120.7001 120.70007,120.70008 0 0 1 37.962,-87.8381 z" /><path
         id="path53420"
         style="font-variation-settings:normal;display:inline;opacity:1;vector-effect:none;fill:#ffffff;fill-opacity:1;stroke:none;stroke-width:0.0826022;stroke-linecap:butt;stroke-linejoin:miter;stroke-miterlimit:4;stroke-dasharray:none;stroke-dashoffset:0;stroke-opacity:1;-inkscape-stroke:none;stop-color:#000000;stop-opacity:1"
         d="m -298.98986,-657.64923 c -11.6241,99.2954 57.686,189.8839 156.5657,204.6319 98.879699,14.748 191.607299,-51.6722 209.302999,-149.8079 l -43.7142,24.5009 -84.2847,-18.8987 c -18.0819,46.3107 -68.187299,73.5931 -117.902899,73.5966 -66.6608,0 -120.7001,-54.0393 -120.7001,-120.7001 0.03,-4.4451 0.3054,-8.8852 0.8252,-13.3 z"
         sodipodi:nodetypes="csccccccc" /><path
         id="path53422"
         style="font-variation-settings:normal;opacity:1;vector-effect:none;fill:#ffffff;fill-opacity:1;stroke:none;stroke-width:0.0826022;stroke-linecap:butt;stroke-linejoin:miter;stroke-miterlimit:4;stroke-dasharray:none;stroke-dashoffset:0;stroke-opacity:1;-inkscape-stroke:none;stop-color:#000000;stop-opacity:1"
         d="m 45.606739,-731.98683 -12.02,40.7644 c -21.1395,16.4106 -73.8519,22.7259 -73.7854,51.8654 0,66.6608 -72.163499,115.7306 -138.824299,115.7306 -36.217,-0.033 -70.5053,-16.3262 -93.4041,-44.3854 l -0.086,0.035 c 53.6363,69.7014 149.4574,91.0487 227.609299,50.7075 78.1519,-40.3411 116.2509,-130.8163 90.5108,-214.7171 z"
         sodipodi:nodetypes="ccccccscc" /><path
         id="path53424"
         style="font-variation-settings:normal;display:inline;opacity:1;vector-effect:none;fill:#ffffff;fill-opacity:1;stroke:none;stroke-width:0.0826022;stroke-linecap:butt;stroke-linejoin:miter;stroke-miterlimit:4;stroke-dasharray:none;stroke-dashoffset:0;stroke-opacity:1;-inkscape-stroke:none;stop-color:#000000;stop-opacity:1"
         d="m -95.331961,-861.57323 c 71.8188,79.0957 78.7442,197.3617 16.7892,284.1878 l -0.056,0.01 a 120.70007,120.70008 0 0 1 -100.424299,53.7512 120.70007,120.70008 0 0 1 -78.2066,-28.8732 l -0.8,0.1117 c 56.0017,45.9962 134.2649,53.5407 198.022099,19.0897 63.7571003,-34.451 100.3354,-104.05 92.5509,-176.1003 -7.7845,-72.0502 -58.3843,-132.231 -127.8754,-152.1747 z" /></g></g></svg>
